<svg width="24" height="24" viewBox="0 0 47 47" fill="none" xmlns="http://www.w3.org/2000/svg">
<g clip-path="url(#clip0_341_147)">
<path fill-rule="evenodd" clip-rule="evenodd" d="M0 5.03571C0 2.25457 2.25457 0 5.03571 0H41.9643C44.7453 0 47 2.25457 47 5.03571V10.0714C47 12.8526 44.7453 15.1071 41.9643 15.1071H5.03571C2.25457 15.1071 0 12.8526 0 10.0714V5.03571ZM0 25.1786C0 22.3974 2.25457 20.1429 5.03571 20.1429H41.9643C44.7453 20.1429 47 22.3974 47 25.1786V30.2143C47 32.9954 44.7453 35.25 41.9643 35.25H26.0179V41.92H40.2857C41.6762 41.92 42.8036 43.0473 42.8036 44.4378C42.8036 45.8284 41.6762 46.9557 40.2857 46.9557H6.71429C5.32372 46.9557 4.19643 45.8284 4.19643 44.4378C4.19643 43.0473 5.32372 41.92 6.71429 41.92H20.9821V35.25H5.03571C2.25457 35.25 0 32.9954 0 30.2143V25.1786ZM11.75 7.55357C11.75 8.94413 10.6227 10.0714 9.23214 10.0714C7.84158 10.0714 6.71429 8.94413 6.71429 7.55357C6.71429 6.16301 7.84158 5.03571 9.23214 5.03571C10.6227 5.03571 11.75 6.16301 11.75 7.55357ZM26.2883 5.45536C25.1295 5.45536 24.1901 6.39475 24.1901 7.55357C24.1901 8.71239 25.1295 9.65178 26.2883 9.65178H36.9286C38.0875 9.65178 39.0268 8.71239 39.0268 7.55357C39.0268 6.39475 38.0875 5.45536 36.9286 5.45536H26.2883ZM11.75 27.6964C11.75 29.087 10.6227 30.2143 9.23214 30.2143C7.84158 30.2143 6.71429 29.087 6.71429 27.6964C6.71429 26.3059 7.84158 25.1786 9.23214 25.1786C10.6227 25.1786 11.75 26.3059 11.75 27.6964ZM24.1901 27.6964C24.1901 26.5376 25.1295 25.5982 26.2883 25.5982H36.9286C38.0875 25.5982 39.0268 26.5376 39.0268 27.6964C39.0268 28.8552 38.0875 29.7946 36.9286 29.7946H26.2883C25.1295 29.7946 24.1901 28.8552 24.1901 27.6964Z" fill="white"/>
</g>
<defs>
<clipPath id="clip0_341_147">
<rect width="47" height="47" fill="white"/>
</clipPath>
</defs>
</svg>
