<svg width="47" height="50" viewBox="0 0 47 50" fill="none" xmlns="http://www.w3.org/2000/svg">
<path fill-rule="evenodd" clip-rule="evenodd" d="M2.2093 1.56907C3.15368 0.564411 4.43455 0 5.77009 0H24.5224C25.8579 0 27.1388 0.564411 28.0832 1.56907L39.5451 13.7627C40.4895 14.7674 41.0203 16.13 41.0203 17.5507V44.6429C41.0203 46.0636 40.4895 47.4264 39.5451 48.4311C38.6008 49.4357 37.32 50 35.9845 50H5.77009C4.43452 50 3.15368 49.4357 2.2093 48.4311C1.26492 47.4264 0.734375 46.0636 0.734375 44.6429V5.35714C0.734375 3.93636 1.26492 2.57373 2.2093 1.56907ZM17.8946 16.1727C19.0262 17.0326 19.2883 18.7055 18.48 19.9093L13.7918 26.8917C13.3616 27.5324 12.6882 27.9393 11.9506 28.0042C11.213 28.0692 10.4859 27.7856 9.96252 27.2289L7.14961 24.2364C6.16633 23.1903 6.16633 21.4944 7.14961 20.4483C8.13291 19.4023 9.72712 19.4023 10.7104 20.4483L11.4216 21.2049L14.3823 16.7955C15.1905 15.5917 16.7631 15.3129 17.8946 16.1727ZM21.0829 22.7679C21.0829 21.2885 22.2102 20.0893 23.6007 20.0893H31.9936C33.3841 20.0893 34.5114 21.2885 34.5114 22.7679C34.5114 24.2472 33.3841 25.4464 31.9936 25.4464H23.6007C22.2102 25.4464 21.0829 24.2472 21.0829 22.7679ZM21.0829 36.9421C21.0829 35.4626 22.2102 34.2634 23.6007 34.2634H31.9936C33.3841 34.2634 34.5114 35.4626 34.5114 36.9421C34.5114 38.4214 33.3841 39.6207 31.9936 39.6207H23.6007C22.2102 39.6207 21.0829 38.4214 21.0829 36.9421ZM18.48 34.3066C19.2883 33.1028 19.0262 31.4299 17.8946 30.5701C16.7631 29.7102 15.1905 29.989 14.3823 31.1928L11.4216 35.6022L10.7104 34.8456C9.72712 33.7996 8.13291 33.7996 7.14961 34.8456C6.16633 35.8918 6.16633 37.5875 7.14961 38.6336L9.96252 41.6261C10.4859 42.1829 11.213 42.4664 11.9506 42.4014C12.6882 42.3368 13.3616 41.9296 13.7918 41.2889L18.48 34.3066Z" fill="white"/>
</svg>
