<svg width="52" height="44" viewBox="0 0 52 44" fill="none" xmlns="http://www.w3.org/2000/svg">
<g clip-path="url(#clip0_341_145)">
<path fill-rule="evenodd" clip-rule="evenodd" d="M20.485 3.7789e-06C15.0521 3.7789e-06 9.84167 1.8262 5.99998 5.07685C2.15833 8.32751 0.000101939 12.7363 0.000101939 17.3334C-0.0126913 20.7453 1.17895 24.0827 3.42229 26.9178L0.685167 33.1157C0.38282 33.8002 1.07617 34.5029 1.92627 34.3737L11.5199 32.9133C12.4726 33.3061 13.4573 33.6352 14.4645 33.8979C14.1138 32.5987 13.9286 31.2462 13.9286 29.8571C13.9286 19.8766 23.4905 11.7857 35.2857 11.7857C36.9342 11.7857 38.5391 11.9437 40.0801 12.2429C39.3287 10.1727 38.1238 8.2363 36.5238 6.53614C34.6037 4.49586 32.1643 2.8485 29.3874 1.71681C26.6103 0.585125 23.5673 -0.00171826 20.485 3.7789e-06ZM47.1053 19.8566C43.9705 17.2043 39.7191 15.7143 35.2864 15.7143C32.7714 15.7129 30.2885 16.1917 28.0227 17.1151C25.7569 18.0385 23.7665 19.3826 22.1999 21.0473C20.6333 22.712 19.5309 24.6544 18.9748 26.7298C18.4187 28.8051 18.4232 30.9599 18.988 33.0336C19.5529 35.1073 20.6634 37.0464 22.237 38.7062C23.8106 40.3662 25.8066 41.7045 28.0763 42.6209C30.346 43.5374 32.8309 44.0088 35.3458 44C37.8608 43.9909 40.3409 43.5019 42.6014 42.5691L50.0745 43.7068C50.9247 43.8363 51.6178 43.1335 51.3155 42.4487L49.2083 37.6772C51.0387 35.3641 52.0111 32.6411 52.0007 29.8571C52.0007 26.1062 50.2398 22.5089 47.1053 19.8566Z" fill="white"/>
</g>
<defs>
<clipPath id="clip0_341_145">
<rect width="52" height="44" fill="white"/>
</clipPath>
</defs>
</svg>
